G75*
G70*
%OFA0B0*%
%FSLAX24Y24*%
%IPPOS*%
%LPD*%
%AMOC8*
5,1,8,0,0,1.08239X$1,22.5*
%
%ADD10R,0.0552X0.0129*%
%ADD11R,0.1875X0.1875*%
%ADD12R,0.0129X0.0552*%
%ADD13R,0.0473X0.0434*%
%ADD14R,0.0434X0.0473*%
%ADD15R,0.0512X0.0434*%
%ADD16R,0.0288X0.0367*%
%ADD17R,0.0355X0.0355*%
%ADD18R,0.0331X0.1030*%
%ADD19R,0.1030X0.0331*%
%ADD20R,0.0138X0.0257*%
%ADD21R,0.0355X0.0670*%
%ADD22R,0.1280X0.0434*%
%ADD23R,0.1040X0.0740*%
%ADD24C,0.3190*%
%ADD25R,0.0709X0.0355*%
%ADD26C,0.0340*%
D10*
X011482Y006116D03*
X011482Y005959D03*
X011482Y005801D03*
X011482Y005644D03*
X011482Y005486D03*
X011482Y005329D03*
X011482Y005171D03*
X011482Y005014D03*
X011482Y004856D03*
X011482Y004699D03*
X011482Y004541D03*
X011482Y004384D03*
X013978Y004384D03*
X013978Y004541D03*
X013978Y004699D03*
X013978Y004856D03*
X013978Y005014D03*
X013978Y005171D03*
X013978Y005329D03*
X013978Y005486D03*
X013978Y005644D03*
X013978Y005801D03*
X013978Y005959D03*
X013978Y006116D03*
D11*
X012730Y005250D03*
D12*
X011864Y004002D03*
X012021Y004002D03*
X012179Y004002D03*
X012336Y004002D03*
X012494Y004002D03*
X012651Y004002D03*
X012809Y004002D03*
X012966Y004002D03*
X013124Y004002D03*
X013281Y004002D03*
X013439Y004002D03*
X013596Y004002D03*
X013596Y006498D03*
X013439Y006498D03*
X013281Y006498D03*
X013124Y006498D03*
X012966Y006498D03*
X012809Y006498D03*
X012651Y006498D03*
X012494Y006498D03*
X012336Y006498D03*
X012179Y006498D03*
X012021Y006498D03*
X011864Y006498D03*
D13*
X014485Y006420D03*
X015155Y006420D03*
X010117Y007230D03*
X010787Y007230D03*
X009225Y006920D03*
X008555Y006920D03*
X008555Y006370D03*
X009225Y006370D03*
X014485Y007000D03*
X015155Y007000D03*
G36*
X012504Y008363D02*
X012837Y008030D01*
X012530Y007723D01*
X012197Y008056D01*
X012504Y008363D01*
G37*
G36*
X012030Y008837D02*
X012363Y008504D01*
X012056Y008197D01*
X011723Y008530D01*
X012030Y008837D01*
G37*
G36*
X013926Y009237D02*
X013593Y009570D01*
X013900Y009877D01*
X014233Y009544D01*
X013926Y009237D01*
G37*
G36*
X014400Y008763D02*
X014067Y009096D01*
X014374Y009403D01*
X014707Y009070D01*
X014400Y008763D01*
G37*
G36*
X012607Y009694D02*
X012940Y010027D01*
X013247Y009720D01*
X012914Y009387D01*
X012607Y009694D01*
G37*
G36*
X012133Y009220D02*
X012466Y009553D01*
X012773Y009246D01*
X012440Y008913D01*
X012133Y009220D01*
G37*
X011275Y002270D03*
X010605Y002270D03*
X011275Y002870D03*
X010605Y002870D03*
D14*
X011940Y002915D03*
X011940Y002245D03*
X013740Y002245D03*
X013740Y002915D03*
X014340Y002915D03*
X014340Y002245D03*
X007277Y008248D03*
X007277Y008918D03*
X012540Y002245D03*
X012540Y002915D03*
X013140Y002245D03*
X013140Y002915D03*
X014910Y004465D03*
X014910Y003795D03*
D15*
G36*
X013831Y008888D02*
X014192Y008527D01*
X013885Y008220D01*
X013524Y008581D01*
X013831Y008888D01*
G37*
G36*
X013357Y009362D02*
X013718Y009001D01*
X013411Y008694D01*
X013050Y009055D01*
X013357Y009362D01*
G37*
G36*
X012995Y009000D02*
X013356Y008639D01*
X013049Y008332D01*
X012688Y008693D01*
X012995Y009000D01*
G37*
G36*
X013469Y008526D02*
X013830Y008165D01*
X013523Y007858D01*
X013162Y008219D01*
X013469Y008526D01*
G37*
D16*
X008197Y008768D03*
X009103Y008768D03*
D17*
X012540Y001595D03*
X012540Y001005D03*
X013140Y001595D03*
X013140Y001005D03*
D18*
X010000Y000965D03*
X009500Y000965D03*
X009000Y000965D03*
X008500Y000965D03*
X008000Y000965D03*
X008000Y002455D03*
X008500Y002455D03*
X009000Y002455D03*
X009500Y002455D03*
X010000Y002455D03*
D19*
X008565Y003500D03*
X008565Y004000D03*
X008565Y004500D03*
X008565Y005000D03*
X008565Y005500D03*
X010055Y005500D03*
X010055Y005000D03*
X010055Y004500D03*
X010055Y004000D03*
X010055Y003500D03*
D20*
X014713Y005634D03*
X014910Y005634D03*
X015107Y005634D03*
X014713Y005182D03*
X014910Y005182D03*
X015107Y005182D03*
D21*
X016394Y005635D03*
X017732Y005635D03*
D22*
X006736Y009830D03*
X008724Y009830D03*
D23*
X004590Y009831D03*
X004590Y001169D03*
X003370Y009831D03*
X003370Y001169D03*
D24*
X003980Y004516D02*
X003980Y006484D01*
D25*
X011460Y010439D03*
X011460Y009101D03*
X010210Y010429D03*
X010210Y009091D03*
D26*
X014480Y007450D03*
X009220Y007450D03*
X010118Y006676D03*
X011566Y003604D03*
M02*
