%
M48
M72
T01C0.0150
T02C0.0160
%
T01
X12030Y4600
X13430Y4600
X13430Y5950
X12030Y5250
X12730Y5250
X13430Y5250
X12730Y5950
X12730Y4600
X12008Y1437
X11443Y6616
X13520Y7540
X13480Y10110
X12030Y5950
X11660Y7550
X11460Y9550
X11920Y7020
X10210Y9550
X10692Y850
X13334Y3492
X7007Y7480
T02
X14480Y7450
X9220Y7450
X10118Y6676
X11566Y3604
M30
