G75*
G70*
%OFA0B0*%
%FSLAX24Y24*%
%IPPOS*%
%LPD*%
%AMOC8*
5,1,8,0,0,1.08239X$1,22.5*
%
%ADD10C,0.0060*%
%ADD11C,0.0040*%
%ADD12C,0.0050*%
%ADD13C,0.0030*%
%ADD14C,0.0220*%
%ADD15R,0.0300X0.0180*%
%ADD16C,0.0080*%
%ADD17R,0.0094X0.0061*%
%ADD18R,0.0276X0.0118*%
D10*
X001600Y000199D02*
X001600Y000459D01*
X001730Y000459D01*
X001774Y000416D01*
X001774Y000372D01*
X001730Y000329D01*
X001774Y000286D01*
X001774Y000242D01*
X001730Y000199D01*
X001600Y000199D01*
X001600Y000329D02*
X001730Y000329D01*
X001895Y000459D02*
X001895Y000199D01*
X002068Y000199D01*
X002363Y000459D02*
X002190Y000459D01*
X002190Y000199D01*
X002363Y000199D01*
X002276Y000329D02*
X002190Y000329D01*
X002779Y000199D02*
X002779Y000459D01*
X002952Y000199D01*
X002952Y000459D01*
X003074Y000199D02*
X003074Y000459D01*
X003204Y000459D01*
X003247Y000416D01*
X003247Y000329D01*
X003204Y000286D01*
X003074Y000286D01*
X003160Y000286D02*
X003247Y000199D01*
X003368Y000199D02*
X003368Y000459D01*
X003542Y000459D01*
X003455Y000329D02*
X003368Y000329D01*
X003836Y000459D02*
X003663Y000459D01*
X003663Y000329D01*
X003750Y000372D01*
X003793Y000372D01*
X003836Y000329D01*
X003836Y000242D01*
X003793Y000199D01*
X003706Y000199D01*
X003663Y000242D01*
X003957Y000372D02*
X004044Y000459D01*
X004044Y000199D01*
X003957Y000199D02*
X004131Y000199D01*
X004252Y000416D02*
X004296Y000459D01*
X004382Y000459D01*
X004426Y000416D01*
X004426Y000372D01*
X004382Y000329D01*
X004426Y000286D01*
X004426Y000242D01*
X004382Y000199D01*
X004296Y000199D01*
X004252Y000242D01*
X004252Y000286D01*
X004296Y000329D01*
X004252Y000372D01*
X004252Y000416D01*
X004296Y000329D02*
X004382Y000329D01*
X004720Y000199D02*
X004547Y000199D01*
X004720Y000372D01*
X004720Y000416D01*
X004677Y000459D01*
X004590Y000459D01*
X004547Y000416D01*
X005015Y000199D02*
X004841Y000199D01*
X005015Y000372D01*
X005015Y000416D01*
X004972Y000459D01*
X004885Y000459D01*
X004841Y000416D01*
X005136Y000372D02*
X005223Y000199D01*
X005310Y000372D01*
X005431Y000372D02*
X005517Y000459D01*
X005517Y000199D01*
X005431Y000199D02*
X005604Y000199D01*
X014723Y006078D02*
X014680Y006121D01*
X014593Y006121D01*
X014550Y006078D01*
X014550Y005904D01*
X014593Y005861D01*
X014680Y005861D01*
X014723Y005904D01*
X014845Y006034D02*
X014931Y006121D01*
X014931Y005861D01*
X014845Y005861D02*
X015018Y005861D01*
X010302Y007734D02*
X010259Y007777D01*
X010172Y007777D01*
X010129Y007734D01*
X010129Y007560D01*
X010172Y007517D01*
X010259Y007517D01*
X010302Y007560D01*
X010597Y007517D02*
X010424Y007517D01*
X010597Y007690D01*
X010597Y007734D01*
X010554Y007777D01*
X010467Y007777D01*
X010424Y007734D01*
X011849Y001857D02*
X011806Y001900D01*
X011719Y001900D01*
X011676Y001857D01*
X011676Y001683D01*
X011719Y001640D01*
X011806Y001640D01*
X011849Y001683D01*
X011971Y001857D02*
X012014Y001900D01*
X012101Y001900D01*
X012144Y001857D01*
X012144Y001813D01*
X012101Y001770D01*
X012057Y001770D01*
X012101Y001770D02*
X012144Y001727D01*
X012144Y001683D01*
X012101Y001640D01*
X012014Y001640D01*
X011971Y001683D01*
X007855Y007063D02*
X007855Y006803D01*
X008028Y006803D01*
X008149Y006976D02*
X008236Y007063D01*
X008236Y006803D01*
X008149Y006803D02*
X008323Y006803D01*
X007827Y006539D02*
X007827Y006279D01*
X008000Y006279D01*
X008295Y006279D02*
X008121Y006279D01*
X008295Y006453D01*
X008295Y006496D01*
X008252Y006539D01*
X008165Y006539D01*
X008121Y006496D01*
X013837Y001469D02*
X013577Y001469D01*
X013577Y001599D01*
X013620Y001642D01*
X013707Y001642D01*
X013750Y001599D01*
X013750Y001469D01*
X013750Y001556D02*
X013837Y001642D01*
X013664Y001764D02*
X013577Y001850D01*
X013837Y001850D01*
X013837Y001764D02*
X013837Y001937D01*
X014246Y001630D02*
X014203Y001587D01*
X014203Y001500D01*
X014246Y001457D01*
X014420Y001457D01*
X014463Y001500D01*
X014463Y001587D01*
X014420Y001630D01*
X014463Y001882D02*
X014203Y001882D01*
X014333Y001752D01*
X014333Y001925D01*
X015023Y007537D02*
X014980Y007580D01*
X014893Y007580D01*
X014850Y007537D01*
X014850Y007363D01*
X014893Y007320D01*
X014980Y007320D01*
X015023Y007363D01*
X015318Y007580D02*
X015145Y007580D01*
X015145Y007450D01*
X015231Y007493D01*
X015275Y007493D01*
X015318Y007450D01*
X015318Y007363D01*
X015275Y007320D01*
X015188Y007320D01*
X015145Y007363D01*
X012602Y008682D02*
X012602Y008744D01*
X012541Y008805D01*
X012479Y008805D01*
X012357Y008682D01*
X012357Y008621D01*
X012418Y008560D01*
X012479Y008560D01*
X012841Y008505D02*
X012749Y008535D01*
X012626Y008535D01*
X012565Y008474D01*
X012565Y008413D01*
X012626Y008351D01*
X012688Y008351D01*
X012718Y008382D01*
X012718Y008443D01*
X012626Y008535D01*
X014433Y009810D02*
X014433Y009872D01*
X014372Y009933D01*
X014310Y009933D01*
X014188Y009810D01*
X014188Y009749D01*
X014249Y009688D01*
X014310Y009688D01*
X014549Y009755D02*
X014672Y009633D01*
X014641Y009602D01*
X014396Y009602D01*
X014365Y009571D01*
X012260Y009759D02*
X012198Y009759D01*
X012137Y009698D01*
X012137Y009636D01*
X012260Y009514D01*
X012321Y009514D01*
X012382Y009575D01*
X012382Y009636D01*
X012345Y009845D02*
X012345Y009906D01*
X012407Y009967D01*
X012468Y009967D01*
X012499Y009937D01*
X012499Y009875D01*
X012560Y009875D01*
X012591Y009845D01*
X012591Y009783D01*
X012529Y009722D01*
X012468Y009722D01*
X012437Y009753D01*
X012437Y009814D01*
X012376Y009814D01*
X012345Y009845D01*
X012437Y009814D02*
X012499Y009875D01*
X007598Y008523D02*
X007555Y008480D01*
X007555Y008393D01*
X007598Y008350D01*
X007772Y008350D01*
X007815Y008393D01*
X007815Y008480D01*
X007772Y008523D01*
X007772Y008645D02*
X007815Y008688D01*
X007815Y008775D01*
X007772Y008818D01*
X007598Y008818D01*
X007555Y008775D01*
X007555Y008688D01*
X007598Y008645D01*
X007642Y008645D01*
X007685Y008688D01*
X007685Y008818D01*
X012493Y003172D02*
X012233Y003172D01*
X012233Y003302D01*
X012276Y003345D01*
X012363Y003345D01*
X012406Y003302D01*
X012406Y003172D01*
X012406Y003259D02*
X012493Y003345D01*
X012493Y003640D02*
X012493Y003467D01*
X012320Y003640D01*
X012276Y003640D01*
X012233Y003597D01*
X012233Y003510D01*
X012276Y003467D01*
X013081Y003178D02*
X012821Y003178D01*
X012821Y003308D01*
X012864Y003351D01*
X012951Y003351D01*
X012994Y003308D01*
X012994Y003178D01*
X012994Y003265D02*
X013081Y003351D01*
X012864Y003473D02*
X012821Y003516D01*
X012821Y003603D01*
X012864Y003646D01*
X012908Y003646D01*
X012951Y003603D01*
X012951Y003559D01*
X012951Y003603D02*
X012994Y003646D01*
X013038Y003646D01*
X013081Y003603D01*
X013081Y003516D01*
X013038Y003473D01*
X010723Y001935D02*
X010680Y001978D01*
X010593Y001978D01*
X010550Y001935D01*
X010550Y001761D01*
X010593Y001718D01*
X010680Y001718D01*
X010723Y001761D01*
X010845Y001891D02*
X010931Y001978D01*
X010931Y001718D01*
X010845Y001718D02*
X011018Y001718D01*
X011139Y001761D02*
X011139Y001935D01*
X011183Y001978D01*
X011269Y001978D01*
X011313Y001935D01*
X011313Y001761D01*
X011269Y001718D01*
X011183Y001718D01*
X011139Y001761D01*
X011313Y001935D01*
X010763Y003413D02*
X010720Y003456D01*
X010633Y003456D01*
X010590Y003413D01*
X010590Y003239D01*
X010633Y003196D01*
X010720Y003196D01*
X010763Y003239D01*
X010885Y003369D02*
X010971Y003456D01*
X010971Y003196D01*
X010885Y003196D02*
X011058Y003196D01*
X011179Y003369D02*
X011266Y003456D01*
X011266Y003196D01*
X011179Y003196D02*
X011353Y003196D01*
X015338Y003589D02*
X015295Y003546D01*
X015295Y003459D01*
X015338Y003416D01*
X015512Y003416D01*
X015555Y003459D01*
X015555Y003546D01*
X015512Y003589D01*
X015382Y003711D02*
X015295Y003797D01*
X015555Y003797D01*
X015555Y003711D02*
X015555Y003884D01*
X015555Y004179D02*
X015555Y004005D01*
X015382Y004179D01*
X015338Y004179D01*
X015295Y004135D01*
X015295Y004049D01*
X015338Y004005D01*
D11*
X000811Y000990D02*
X000734Y001067D01*
X000581Y001067D01*
X000504Y000990D01*
X000504Y000914D01*
X000581Y000837D01*
X000734Y000837D01*
X000811Y000760D01*
X000811Y000683D01*
X000734Y000607D01*
X000581Y000607D01*
X000504Y000683D01*
X001041Y000990D02*
X001041Y000683D01*
X001118Y000607D01*
X001118Y000914D02*
X000965Y000914D01*
X001272Y000914D02*
X001272Y000607D01*
X001272Y000760D02*
X001425Y000914D01*
X001502Y000914D01*
X001732Y000914D02*
X001885Y000914D01*
X001962Y000837D01*
X001962Y000607D01*
X001732Y000607D01*
X001655Y000683D01*
X001732Y000760D01*
X001962Y000760D01*
X002192Y000990D02*
X002192Y000683D01*
X002269Y000607D01*
X002269Y000914D02*
X002116Y000914D01*
X002423Y000914D02*
X002499Y000914D01*
X002499Y000607D01*
X002423Y000607D02*
X002576Y000607D01*
X002499Y001067D02*
X002499Y001144D01*
X002806Y000914D02*
X002960Y000914D01*
X003036Y000837D01*
X003036Y000607D01*
X002806Y000607D01*
X002729Y000683D01*
X002806Y000760D01*
X003036Y000760D01*
D12*
X011683Y006215D02*
X011685Y006220D01*
X011689Y006223D01*
X011693Y006223D01*
X011697Y006220D01*
X011699Y006215D01*
X011697Y006210D01*
X011693Y006207D01*
X011689Y006207D01*
X011685Y006210D01*
X011683Y006215D01*
X011549Y006201D02*
X011549Y006431D01*
X011778Y006431D01*
X013911Y006432D02*
X013911Y006201D01*
X013911Y004069D02*
X013681Y004069D01*
X011549Y004069D02*
X011549Y004299D01*
X013682Y006432D02*
X013911Y006432D01*
X013911Y004298D02*
X013911Y004069D01*
X011778Y004069D02*
X011549Y004069D01*
X013214Y008279D02*
X013109Y008384D01*
X013666Y008941D02*
X013771Y008836D01*
X013812Y008286D02*
X013764Y008238D01*
X013068Y008934D02*
X013116Y008982D01*
X010076Y001848D02*
X010078Y001857D01*
X010083Y001866D01*
X010090Y001871D01*
X010100Y001874D01*
X010109Y001873D01*
X010118Y001869D01*
X010124Y001862D01*
X010128Y001853D01*
X010128Y001843D01*
X010124Y001834D01*
X010118Y001827D01*
X010109Y001823D01*
X010100Y001822D01*
X010090Y001825D01*
X010083Y001830D01*
X010078Y001839D01*
X010076Y001848D01*
X010160Y001158D02*
X010248Y001158D01*
X010248Y002262D01*
X010170Y002262D01*
X007834Y001160D02*
X007834Y001158D01*
X007752Y001158D01*
X007752Y002262D01*
X007830Y002262D01*
X009422Y003398D02*
X009424Y003407D01*
X009429Y003416D01*
X009436Y003421D01*
X009446Y003424D01*
X009455Y003423D01*
X009464Y003419D01*
X009470Y003412D01*
X009474Y003403D01*
X009474Y003393D01*
X009470Y003384D01*
X009464Y003377D01*
X009455Y003373D01*
X009446Y003372D01*
X009436Y003375D01*
X009429Y003380D01*
X009424Y003389D01*
X009422Y003398D01*
X008758Y003340D02*
X008758Y003252D01*
X009862Y003252D01*
X009862Y003330D01*
X008760Y005666D02*
X008758Y005666D01*
X008758Y005748D01*
X009862Y005748D01*
X009862Y005670D01*
X014638Y005566D02*
X014594Y005566D01*
X014594Y005250D01*
X014640Y005250D01*
X015180Y005566D02*
X015224Y005566D01*
X015224Y005250D01*
X015180Y005250D01*
X016577Y005950D02*
X017549Y005950D01*
X017549Y005320D02*
X016577Y005320D01*
X006746Y010052D02*
X006746Y010330D01*
X008714Y010330D01*
X008714Y010052D01*
X006746Y009608D02*
X006746Y009608D01*
X006746Y009330D01*
X008714Y009330D01*
X008714Y009608D01*
X006746Y010052D02*
X007382Y010052D01*
X007382Y009608D01*
X006746Y009608D01*
X008714Y010052D02*
X008078Y010052D01*
X008078Y009608D01*
X008714Y009608D01*
X011102Y009180D02*
X010968Y009180D01*
X010968Y010360D01*
X011100Y010360D01*
X011818Y009180D02*
X011952Y009180D01*
X011952Y010360D01*
X011820Y010360D01*
X009852Y009170D02*
X009718Y009170D01*
X009718Y010350D01*
X009850Y010350D01*
X010568Y009170D02*
X010702Y009170D01*
X010702Y010350D01*
X010570Y010350D01*
D13*
X012129Y006730D02*
X012129Y007020D01*
X012322Y006730D01*
X012322Y007020D01*
X012424Y006730D02*
X012424Y007020D01*
X012569Y007020D01*
X012617Y006972D01*
X012617Y006875D01*
X012569Y006827D01*
X012424Y006827D01*
X012520Y006827D02*
X012617Y006730D01*
X012718Y006730D02*
X012718Y007020D01*
X012912Y007020D01*
X012815Y006875D02*
X012718Y006875D01*
X013206Y007020D02*
X013013Y007020D01*
X013013Y006875D01*
X013110Y006923D01*
X013158Y006923D01*
X013206Y006875D01*
X013206Y006778D01*
X013158Y006730D01*
X013061Y006730D01*
X013013Y006778D01*
X013308Y006923D02*
X013404Y007020D01*
X013404Y006730D01*
X013308Y006730D02*
X013501Y006730D01*
X013602Y006972D02*
X013651Y007020D01*
X013747Y007020D01*
X013796Y006972D01*
X013796Y006923D01*
X013747Y006875D01*
X013796Y006827D01*
X013796Y006778D01*
X013747Y006730D01*
X013651Y006730D01*
X013602Y006778D01*
X013602Y006827D01*
X013651Y006875D01*
X013602Y006923D01*
X013602Y006972D01*
X013651Y006875D02*
X013747Y006875D01*
X014090Y006730D02*
X013897Y006730D01*
X014090Y006923D01*
X014090Y006972D01*
X014042Y007020D01*
X013945Y007020D01*
X013897Y006972D01*
X014385Y006730D02*
X014192Y006730D01*
X014385Y006923D01*
X014385Y006972D01*
X014337Y007020D01*
X014240Y007020D01*
X014192Y006972D01*
X014020Y007926D02*
X013678Y007994D01*
X013814Y008131D02*
X013883Y007789D01*
X014160Y008066D02*
X013954Y008271D01*
X013886Y008203D02*
X014023Y008340D01*
X008330Y008453D02*
X008330Y008163D01*
X008475Y008163D01*
X008523Y008211D01*
X008523Y008405D01*
X008475Y008453D01*
X008330Y008453D01*
X008624Y008356D02*
X008721Y008453D01*
X008721Y008163D01*
X008624Y008163D02*
X008818Y008163D01*
X011686Y000726D02*
X011686Y000436D01*
X011879Y000436D01*
X012174Y000726D02*
X011981Y000726D01*
X011981Y000436D01*
X012174Y000436D01*
X012077Y000581D02*
X011981Y000581D01*
X012275Y000726D02*
X012275Y000436D01*
X012420Y000436D01*
X012469Y000484D01*
X012469Y000678D01*
X012420Y000726D01*
X012275Y000726D01*
X012570Y000629D02*
X012667Y000726D01*
X012667Y000436D01*
X012763Y000436D02*
X012570Y000436D01*
X013166Y000726D02*
X013166Y000436D01*
X013359Y000436D01*
X013654Y000726D02*
X013461Y000726D01*
X013461Y000436D01*
X013654Y000436D01*
X013557Y000581D02*
X013461Y000581D01*
X013755Y000726D02*
X013755Y000436D01*
X013900Y000436D01*
X013949Y000484D01*
X013949Y000678D01*
X013900Y000726D01*
X013755Y000726D01*
X014243Y000436D02*
X014050Y000436D01*
X014243Y000629D01*
X014243Y000678D01*
X014195Y000726D01*
X014098Y000726D01*
X014050Y000678D01*
X007639Y001076D02*
X007349Y001076D01*
X007349Y001221D01*
X007397Y001269D01*
X007494Y001269D01*
X007542Y001221D01*
X007542Y001076D01*
X007639Y001371D02*
X007349Y001371D01*
X007349Y001516D01*
X007397Y001564D01*
X007494Y001564D01*
X007542Y001516D01*
X007542Y001371D01*
X007542Y001467D02*
X007639Y001564D01*
X007349Y001810D02*
X007349Y001714D01*
X007397Y001665D01*
X007591Y001665D01*
X007639Y001714D01*
X007639Y001810D01*
X007591Y001859D01*
X007397Y001859D01*
X007349Y001810D01*
X007397Y002153D02*
X007349Y002105D01*
X007349Y002008D01*
X007397Y001960D01*
X007591Y001960D01*
X007639Y002008D01*
X007639Y002105D01*
X007591Y002153D01*
X007494Y002153D01*
X007494Y002057D01*
X007199Y004495D02*
X007199Y004302D01*
X007489Y004302D01*
X007489Y004495D01*
X007344Y004399D02*
X007344Y004302D01*
X007199Y004596D02*
X007489Y004790D01*
X007489Y004596D02*
X007199Y004790D01*
X007489Y004891D02*
X007199Y004891D01*
X007199Y005036D01*
X007247Y005085D01*
X007344Y005085D01*
X007392Y005036D01*
X007392Y004891D01*
X015567Y004550D02*
X015277Y004550D01*
X015277Y004695D01*
X015325Y004743D01*
X015374Y004743D01*
X015422Y004695D01*
X015470Y004743D01*
X015519Y004743D01*
X015567Y004695D01*
X015567Y004550D01*
X015422Y004550D02*
X015422Y004695D01*
X015277Y004845D02*
X015567Y004845D01*
X015567Y005038D01*
X015567Y005139D02*
X015277Y005139D01*
X015567Y005333D01*
X015277Y005333D01*
X016614Y006255D02*
X016614Y006448D01*
X016711Y006545D01*
X016807Y006448D01*
X016807Y006255D01*
X016807Y006400D02*
X016614Y006400D01*
X016909Y006255D02*
X016909Y006545D01*
X017102Y006255D01*
X017102Y006545D01*
X017300Y006545D02*
X017300Y006255D01*
X017203Y006545D02*
X017397Y006545D01*
X007550Y010449D02*
X007598Y010401D01*
X007647Y010401D01*
X007695Y010449D01*
X007695Y010691D01*
X007647Y010691D02*
X007743Y010691D01*
X007845Y010401D02*
X007845Y010691D01*
X007990Y010691D01*
X008038Y010643D01*
X008038Y010546D01*
X007990Y010498D01*
X007845Y010498D01*
X003489Y010411D02*
X003489Y010701D01*
X003634Y010701D01*
X003682Y010653D01*
X003682Y010604D01*
X003634Y010556D01*
X003682Y010508D01*
X003682Y010459D01*
X003634Y010411D01*
X003489Y010411D01*
X003489Y010556D02*
X003634Y010556D01*
X003784Y010411D02*
X003784Y010604D01*
X003880Y010701D01*
X003977Y010604D01*
X003977Y010411D01*
X003977Y010556D02*
X003784Y010556D01*
X004175Y010411D02*
X004175Y010701D01*
X004078Y010701D02*
X004272Y010701D01*
X004470Y010701D02*
X004470Y010411D01*
X004373Y010701D02*
X004566Y010701D01*
X012209Y010714D02*
X012161Y010762D01*
X012064Y010762D01*
X012016Y010714D01*
X012016Y010665D01*
X012064Y010617D01*
X012161Y010617D01*
X012209Y010569D01*
X012209Y010520D01*
X012161Y010472D01*
X012064Y010472D01*
X012016Y010520D01*
X012311Y010762D02*
X012311Y010472D01*
X012407Y010569D01*
X012504Y010472D01*
X012504Y010762D01*
X012605Y010665D02*
X012702Y010762D01*
X012702Y010472D01*
X012605Y010472D02*
X012799Y010472D01*
X009011Y010747D02*
X008963Y010795D01*
X008866Y010795D01*
X008818Y010747D01*
X008818Y010698D01*
X008866Y010650D01*
X008963Y010650D01*
X009011Y010602D01*
X009011Y010553D01*
X008963Y010505D01*
X008866Y010505D01*
X008818Y010553D01*
X009113Y010795D02*
X009113Y010505D01*
X009209Y010602D01*
X009306Y010505D01*
X009306Y010795D01*
X009601Y010505D02*
X009407Y010505D01*
X009601Y010698D01*
X009601Y010747D01*
X009552Y010795D01*
X009456Y010795D01*
X009407Y010747D01*
D14*
X014820Y006432D02*
X014820Y006408D01*
X010452Y007218D02*
X010452Y007242D01*
X011928Y002580D02*
X011952Y002580D01*
X014328Y002580D02*
X014352Y002580D01*
X014820Y006988D02*
X014820Y007012D01*
X012288Y008288D02*
X012272Y008272D01*
X014142Y009312D02*
X014158Y009328D01*
X012698Y009462D02*
X012682Y009478D01*
X007289Y008583D02*
X007265Y008583D01*
X010940Y002282D02*
X010940Y002258D01*
X010940Y002858D02*
X010940Y002882D01*
X014898Y004130D02*
X014922Y004130D01*
D15*
X013740Y002580D03*
X012540Y002580D03*
X013140Y002580D03*
D16*
X008296Y009024D02*
X008453Y009024D01*
X009004Y009024D01*
X008296Y008512D02*
X008453Y008512D01*
X009004Y008512D01*
X008453Y008512D02*
X008453Y009024D01*
X012721Y001367D02*
X012540Y001367D01*
X012359Y001367D01*
X012540Y001367D02*
X012632Y001245D01*
X012530Y001361D02*
X012454Y001245D01*
X013321Y001367D02*
X013140Y001367D01*
X012959Y001367D01*
X013140Y001367D02*
X013232Y001245D01*
X013130Y001361D02*
X013054Y001245D01*
X006874Y002547D02*
X006874Y008453D01*
X005811Y009654D01*
X006874Y002547D02*
X005811Y001346D01*
X002189Y001346D02*
X000850Y003315D01*
X000949Y003488D01*
X001040Y003666D01*
X001123Y003848D01*
X001197Y004033D01*
X001262Y004222D01*
X001318Y004414D01*
X001365Y004608D01*
X001402Y004804D01*
X001430Y005002D01*
X001449Y005201D01*
X001459Y005400D01*
X001459Y005600D01*
X001449Y005799D01*
X001430Y005998D01*
X001402Y006196D01*
X001365Y006392D01*
X001318Y006586D01*
X001262Y006778D01*
X001197Y006967D01*
X001123Y007152D01*
X001040Y007334D01*
X000949Y007512D01*
X000850Y007685D01*
X002189Y009654D01*
X005240Y001346D02*
X005811Y001346D01*
X005811Y009654D02*
X005240Y009654D01*
X002720Y009654D02*
X002189Y009654D01*
X002189Y001346D02*
X002720Y001346D01*
D17*
X015111Y005409D03*
D18*
X016728Y005655D03*
M02*
